<?xml version="1.0" standalone="no"?>
<!DOCTYPE svg PUBLIC "-//W3C//DTD SVG 20010904//EN"
 "http://www.w3.org/TR/2001/REC-SVG-20010904/DTD/svg10.dtd">
<svg version="1.0" xmlns="http://www.w3.org/2000/svg"
 width="307.000000pt" height="314.000000pt" viewBox="0 0 307.000000 314.000000"
 preserveAspectRatio="xMidYMid meet">

<g transform="translate(0.000000,314.000000) scale(0.100000,-0.100000)"
fill="#000000" stroke="none">
<path d="M1440 2734 c-14 -2 -52 -9 -85 -15 -149 -26 -343 -110 -478 -207 -93
-66 -236 -212 -296 -301 -98 -143 -165 -309 -196 -484 -24 -135 -17 -374 15
-497 128 -484 510 -836 995 -916 131 -21 344 -15 466 15 236 56 414 156 589
331 228 226 342 485 357 805 24 524 -275 988 -767 1189 -140 58 -243 78 -415
81 -88 2 -171 2 -185 -1z m550 -859 l355 -355 -357 -357 -357 -357 -130 129
c-72 72 -131 134 -131 140 0 5 53 63 117 127 l118 118 -348 0 -347 0 0 200 0
200 347 0 348 0 -118 118 c-64 64 -117 122 -117 127 0 10 250 265 260 265 3 0
165 -160 360 -355z"/>
</g>
</svg>
