<?xml version="1.0" standalone="no"?>
<!DOCTYPE svg PUBLIC "-//W3C//DTD SVG 20010904//EN"
 "http://www.w3.org/TR/2001/REC-SVG-20010904/DTD/svg10.dtd">
<svg version="1.0" xmlns="http://www.w3.org/2000/svg"
 width="307.000000pt" height="314.000000pt" viewBox="0 0 307.000000 314.000000"
 preserveAspectRatio="xMidYMid meet">

<g transform="translate(0.000000,314.000000) scale(0.100000,-0.100000)"
fill="#000000" stroke="none">
<path d="M1375 2753 c-180 -23 -366 -94 -530 -202 -91 -59 -268 -237 -327
-326 -132 -203 -194 -395 -205 -630 -24 -529 280 -996 779 -1194 156 -61 236
-75 433 -76 194 0 241 7 390 57 194 64 348 162 493 312 178 184 282 387 327
639 24 135 17 374 -15 497 -147 560 -633 936 -1200 928 -63 0 -128 -3 -145 -5z
m258 -641 c64 -65 117 -123 117 -128 0 -5 -53 -62 -117 -126 l-118 -118 348 0
347 0 0 -200 0 -200 -347 0 -348 0 118 -118 c64 -64 117 -122 117 -127 0 -6
-58 -69 -130 -140 l-130 -130 -357 358 -358 357 354 354 c278 278 358 353 370
346 9 -5 69 -62 134 -128z"/>
</g>
</svg>
